<?xml version="1.0" standalone="no"?>
<!DOCTYPE svg PUBLIC "-//W3C//DTD SVG 20010904//EN"
 "http://www.w3.org/TR/2001/REC-SVG-20010904/DTD/svg10.dtd">
<svg version="1.0" xmlns="http://www.w3.org/2000/svg"
 width="512.000000pt" height="512.000000pt" viewBox="0 0 512.000000 512.000000"
 preserveAspectRatio="xMidYMid meet">

<g transform="translate(0.000000,512.000000) scale(0.100000,-0.100000)"
fill="#000000" stroke="none">
<path d="M2114 5110 c-12 -4 -31 -21 -43 -36 -20 -26 -21 -35 -21 -325 0 -290
-1 -299 -20 -299 -43 0 -174 -50 -244 -94 -83 -52 -183 -154 -234 -239 -40
-66 -79 -177 -88 -249 l-6 -53 -223 -225 c-122 -124 -234 -243 -247 -265 -55
-88 -60 -195 -13 -290 37 -76 333 -366 409 -401 107 -49 234 -49 342 0 31 14
89 60 151 118 106 100 187 155 266 182 55 19 177 20 225 3 l32 -12 -44 -66
c-61 -90 -188 -223 -326 -339 -189 -160 -291 -279 -399 -470 -87 -154 -150
-323 -181 -485 -6 -33 -13 -69 -15 -81 -4 -16 -17 -24 -59 -33 -104 -23 -191
-104 -221 -205 -11 -37 -15 -104 -15 -261 l0 -211 -77 -34 c-156 -69 -275
-184 -348 -335 -51 -106 -67 -171 -69 -271 -1 -68 1 -76 27 -101 l27 -28 1835
-3 1835 -2 32 29 c32 29 33 32 32 104 -2 101 -18 166 -69 272 -73 151 -192
266 -348 335 l-77 34 0 211 c0 235 -8 281 -60 352 -39 53 -107 98 -170 113
-48 12 -49 13 -57 58 -13 76 -8 211 11 302 10 46 20 88 22 92 3 4 129 8 280 8
310 0 321 2 347 68 24 60 94 325 116 442 37 193 45 291 44 520 -1 357 -53 651
-165 935 -254 642 -884 1159 -1508 1235 -101 12 -656 12 -686 0z m439 -219
c21 -13 50 -42 65 -64 27 -40 27 -41 32 -278 6 -286 1 -275 139 -307 384 -90
699 -366 823 -721 58 -168 93 -435 85 -661 -7 -225 -30 -336 -139 -690 -103
-338 -129 -487 -111 -637 l9 -73 -912 0 -912 0 19 88 c50 230 143 423 295 612
61 76 105 119 234 225 52 43 115 97 139 119 57 54 190 220 232 291 l34 56 55
-8 c143 -21 274 1 417 69 49 23 68 38 80 64 31 64 -16 136 -88 136 -19 0 -66
-14 -104 -31 -151 -64 -247 -62 -417 8 -120 51 -197 65 -306 59 -163 -10 -295
-76 -451 -224 -53 -50 -112 -99 -131 -109 -45 -23 -125 -23 -170 0 -19 10 -97
79 -172 153 -140 138 -167 178 -153 224 4 13 119 136 255 273 247 249 248 250
254 300 20 167 57 255 145 344 92 94 173 132 321 151 58 8 80 16 100 35 l25
25 3 301 3 301 132 -4 c118 -3 136 -5 170 -27z m372 -7 c366 -87 739 -356
1001 -721 74 -102 192 -333 229 -446 94 -285 142 -705 115 -992 -18 -190 -41
-312 -111 -572 l-11 -43 -198 0 -198 0 30 98 c45 149 85 325 102 450 38 275 5
655 -80 917 -125 384 -472 716 -874 836 l-80 24 0 165 c0 156 -4 187 -35 288
-8 26 -17 26 110 -4z m782 -3657 l28 -27 3 -200 3 -199 -421 -3 -422 -3 -29
-33 c-38 -42 -38 -82 0 -124 l29 -33 474 -5 473 -5 68 -27 c148 -59 248 -162
297 -304 11 -31 20 -59 20 -61 0 -1 -761 -3 -1691 -3 l-1690 0 7 23 c24 80 50
130 92 182 62 77 129 128 217 162 l70 28 472 5 473 5 27 27 c41 41 39 100 -5
139 l-32 29 -416 0 -415 0 3 199 c3 182 5 201 23 221 11 12 29 26 40 31 11 4
527 7 1147 6 l1128 -2 27 -28z"/>
<path d="M2004 3750 c-32 -13 -64 -59 -64 -91 0 -18 11 -41 29 -61 l29 -33
135 -3 135 -4 33 30 c28 25 34 37 34 72 0 35 -6 47 -33 71 -32 29 -33 29 -155
28 -67 0 -132 -4 -143 -9z"/>
<path d="M2504 790 c-32 -13 -64 -59 -64 -91 0 -40 46 -88 91 -95 31 -5 42 -1
70 24 28 25 34 37 34 72 0 35 -6 47 -33 71 -33 29 -60 35 -98 19z"/>
</g>
</svg>
